<svg width="75" height="75" viewBox="0 0 75 75" fill="none" xmlns="http://www.w3.org/2000/svg">
<path d="M38.5154 74.8344C48.295 74.5705 57.584 70.5068 64.4003 63.5106C71.2165 56.5143 75.0203 47.1395 74.9999 37.3863C75.0001 32.4768 74.0303 27.6153 72.1459 23.0794C70.2614 18.5436 67.4992 14.422 64.017 10.9504C60.5348 7.47872 56.4008 4.72485 51.851 2.84601C47.3012 0.96716 42.4247 8.10755e-05 37.5 8.0645e-05C32.5753 8.02145e-05 27.6989 0.967158 23.1491 2.846C18.5992 4.72485 14.4652 7.47872 10.983 10.9504C7.5008 14.422 4.73861 18.5435 2.85415 23.0794C0.969697 27.6153 -0.000116598 32.4768 8.71984e-05 37.3863C-0.0103597 42.3875 0.985852 47.3397 2.92974 51.9501C4.87363 56.5605 7.72568 60.7353 11.317 64.2271C14.9084 67.7189 19.166 70.4569 23.8378 72.2789C28.5096 74.1009 33.5006 74.9699 38.5154 74.8344ZM37.4999 71.3708L37.4999 3.40165C46.4886 3.48115 55.0821 7.09664 61.4101 13.4614C67.738 19.8261 71.2884 28.4249 71.2884 37.3863C71.2884 46.3478 67.738 54.9464 61.4101 61.3111C55.0821 67.6759 46.4886 71.2914 37.4999 71.3708Z" fill="white"/>
</svg>
