<svg width="75" height="75" viewBox="0 0 75 75" fill="none" xmlns="http://www.w3.org/2000/svg">
<path d="M36.4846 0.0137239C26.705 0.277639 17.416 4.34131 10.5997 11.3376C3.78348 18.3338 -0.020282 27.7087 8.13411e-05 37.4618C-0.000122885 42.3713 0.96969 47.2328 2.85415 51.7687C4.7386 56.3046 7.50079 60.4261 10.983 63.8978C14.4652 67.3694 18.5992 70.1233 23.149 72.0021C27.6988 73.881 32.5753 74.8481 37.5 74.8481C42.4247 74.8481 47.3012 73.881 51.851 72.0021C56.4008 70.1233 60.5348 67.3694 64.017 63.8978C67.4992 60.4261 70.2614 56.3046 72.1459 51.7687C74.0303 47.2328 75.0001 42.3713 74.9999 37.4618C75.0104 32.4607 74.0142 27.5085 72.0703 22.898C70.1264 18.2876 67.2743 14.1129 63.683 10.621C60.0916 7.12921 55.834 4.39125 51.1622 2.56927C46.4904 0.747281 41.4994 -0.121778 36.4846 0.0137239V0.0137239ZM37.5001 3.47729V71.4465C28.5114 71.367 19.9179 67.7515 13.5899 61.3868C7.26196 55.022 3.71164 46.4232 3.71164 37.4618C3.71164 28.5004 7.26196 19.9017 13.5899 13.537C19.9179 7.17228 28.5114 3.55679 37.5001 3.47729V3.47729Z" fill="black"/>
</svg>
